<svg xmlns="http://www.w3.org/2000/svg" width="199" height="85" viewBox="0 0 199 85"><defs><style>.a{fill:#fff;}.b{fill:#dadbdf;}.c{fill:#fcff00;}.d{fill:#01ffff;}.e{fill:#00ff01;}.f{fill:#f708f9;}.g{fill:#fd0002;}.h{fill:#1101fa;}</style></defs><g transform="translate(910 388)"><path class="a" d="M25.175-63.745a8.116,8.116,0,0,0-1.805-5.083,6.652,6.652,0,0,0-4.845-2.612h-7.6a6,6,0,0,0-3.04.713,6.371,6.371,0,0,0-2.043,1.853,7.843,7.843,0,0,0-1.187,2.66,12.877,12.877,0,0,0-.38,3.135V-8.36a12.918,12.918,0,0,0,.332,2.945A7.757,7.757,0,0,0,5.7-2.85,6.89,6.89,0,0,0,7.7-.9,5.876,5.876,0,0,0,10.64,0H19.1a5.463,5.463,0,0,0,4.56-2.613,9.732,9.732,0,0,0,1.52-5.273ZM9.025-10.355V-61.18a7.568,7.568,0,0,1,.76-3.657,2.205,2.205,0,0,1,1.9-1.378h5.89A2.23,2.23,0,0,1,19.9-64.933a10.749,10.749,0,0,1,.522,3.848v50.73A10.749,10.749,0,0,1,19.9-6.508a2.23,2.23,0,0,1-2.328,1.283h-4.75q-2.47,0-3.135-1.33A8.7,8.7,0,0,1,9.025-10.355ZM62.7-71.44,53.865-14.535,45.79-71.44H40.375L50.92,0h5.795L64.5-51.11,71.725,0h5.7l11.4-71.44H83.41L74.575-14.535,66.5-71.44Zm45.98,29.165a7.032,7.032,0,0,0,.285,2.185q.285.855,2,.855h8.265a4.09,4.09,0,0,1,1.615.427,7.268,7.268,0,0,1,1.853,1.235,7.439,7.439,0,0,1,1.52,1.9,4.656,4.656,0,0,1,.618,2.327V-8.36a10.477,10.477,0,0,1-1.52,5.605A6.158,6.158,0,0,1,118.18,0h-7.695a6.731,6.731,0,0,1-4.8-2.613A7.987,7.987,0,0,1,103.835-7.7v-16.34h4.75V-10.26a9.552,9.552,0,0,0,.57,3.8,2.342,2.342,0,0,0,2.375,1.235h5.89A2.082,2.082,0,0,0,119.51-6.6a9.732,9.732,0,0,0,.57-3.657V-31.065a3.357,3.357,0,0,0-.618-2.232,3.316,3.316,0,0,0-2.518-.713H109.82a6.578,6.578,0,0,1-2-.333,5.591,5.591,0,0,1-1.9-1.045,5.551,5.551,0,0,1-1.425-1.9,6.415,6.415,0,0,1-.57-2.8V-63.08a10.734,10.734,0,0,1,1.472-5.605,6.026,6.026,0,0,1,5.083-2.755h7.695a6.652,6.652,0,0,1,4.845,2.612,8.116,8.116,0,0,1,1.805,5.083v16.34h-4.75v-13.68a10.749,10.749,0,0,0-.523-3.848,2.23,2.23,0,0,0-2.327-1.283h-5.89a2.065,2.065,0,0,0-2.137,1.378,10.536,10.536,0,0,0-.522,3.657ZM139.935,0h21.09V-5.225H144.78V-71.44h-4.845ZM197.7,0h5.13L192-71.44h-5.51L176.035,0h5.225l7.98-56.81Z" transform="translate(-914 -303)"/><g transform="translate(-909.945 -387.698)"><rect class="b" width="28" height="6" transform="translate(-0.055 -0.302)"/><rect class="c" width="29" height="6" transform="translate(27.945 -0.302)"/><rect class="d" width="28" height="6" transform="translate(56.945 -0.302)"/><rect class="e" width="29" height="6" transform="translate(84.945 -0.302)"/><rect class="f" width="28" height="6" transform="translate(113.945 -0.302)"/><rect class="g" width="28" height="6" transform="translate(141.945 -0.302)"/><rect class="h" width="29" height="6" transform="translate(169.945 -0.302)"/></g></g></svg>